<svg id="Layer_1" data-name="Layer 1" xmlns="http://www.w3.org/2000/svg" viewBox="0 0 118 63.44"><title>sample-logo-stack-black</title><path d="M13.84,16.77a3.64,3.64,0,0,0-1.33-2.91,12.3,12.3,0,0,0-4.64-2A14.7,14.7,0,0,1,2.44,9.53,4.67,4.67,0,0,1,.6,5.65,4.9,4.9,0,0,1,2.66,1.57,8.48,8.48,0,0,1,8,0,7.79,7.79,0,0,1,13.4,1.87a5.75,5.75,0,0,1,2,4.57l0,.09H13.71a4.64,4.64,0,0,0-1.55-3.6A6,6,0,0,0,8,1.53,6.45,6.45,0,0,0,3.86,2.7,3.57,3.57,0,0,0,2.38,5.6,3.4,3.4,0,0,0,3.75,8.35a12.76,12.76,0,0,0,4.7,1.94,13.63,13.63,0,0,1,5.36,2.43,5,5,0,0,1,1.84,4,4.87,4.87,0,0,1-2.14,4.15,9.07,9.07,0,0,1-5.45,1.54,10,10,0,0,1-5.7-1.64A5.24,5.24,0,0,1,0,16l0-.09H1.68a4.16,4.16,0,0,0,1.9,3.76,8.1,8.1,0,0,0,4.48,1.22,7.07,7.07,0,0,0,4.19-1.14A3.52,3.52,0,0,0,13.84,16.77Z"/><path d="M32.14,16h-10L19.9,22.13H18L26.32.31H28l8.22,21.81H34.38Zm-9.39-1.6h8.81L27.21,2.64h-.09Z"/><path d="M42.55.31l8,19.21h.09L58.7.31h2.37V22.13H59.28V12.49L59.43,3l-.09,0L51.24,22.13H50L41.9,3h-.09L42,12.49v9.63H40.2V.31Z"/><path d="M69.18,13.06v9.06H67.4V.31h7.51a7.51,7.51,0,0,1,5.31,1.75A6,6,0,0,1,82.1,6.68a6,6,0,0,1-1.88,4.64,7.53,7.53,0,0,1-5.31,1.74Zm0-1.53h5.72A5.47,5.47,0,0,0,79,10.17a4.71,4.71,0,0,0,1.36-3.45A4.79,4.79,0,0,0,79,3.23a5.42,5.42,0,0,0-4.06-1.39H69.18Z"/><path d="M88.8,20.6H99.58v1.53H87V.31h1.8Z"/><path d="M116.06,11.57h-10.5v9h12v1.53H103.78V.31h13.74V1.84h-12V10h10.5Z"/><path d="M10.25,57.17h14V63H2.69V30.48h7.56Z"/><path d="M54.66,49.65a13.58,13.58,0,0,1-3.81,9.9,13.28,13.28,0,0,1-9.94,3.89A13.25,13.25,0,0,1,27.06,49.65V43.8a13.55,13.55,0,0,1,3.83-9.89,13.37,13.37,0,0,1,10-3.91,13.34,13.34,0,0,1,10,3.91,13.53,13.53,0,0,1,3.84,9.89Zm-7.52-5.89A9.4,9.4,0,0,0,45.5,38a5.41,5.41,0,0,0-4.63-2.23A5.43,5.43,0,0,0,36.2,38a9.48,9.48,0,0,0-1.62,5.72v5.89a9.49,9.49,0,0,0,1.64,5.76,5.48,5.48,0,0,0,4.7,2.23,5.36,5.36,0,0,0,4.6-2.23,9.53,9.53,0,0,0,1.63-5.76Z"/><path d="M85.62,58.49a14,14,0,0,1-4.8,3.46,18.39,18.39,0,0,1-7.9,1.5,13.35,13.35,0,0,1-9.79-3.71,12.9,12.9,0,0,1-3.76-9.62V43.33A13.1,13.1,0,0,1,63,33.74,12.69,12.69,0,0,1,72.49,30q6.27,0,9.4,2.9a11.7,11.7,0,0,1,3.55,7.92l0,.13H78.32a6.74,6.74,0,0,0-1.66-3.86,5.31,5.31,0,0,0-3.92-1.29A5.1,5.1,0,0,0,68.5,37.9a8.59,8.59,0,0,0-1.61,5.39v6.83a8.72,8.72,0,0,0,1.58,5.46,5.28,5.28,0,0,0,4.44,2.06,12.54,12.54,0,0,0,3.26-.33,5.25,5.25,0,0,0,1.87-.89V51.28H72.94v-5H85.62Z"/><path d="M118,49.65a13.58,13.58,0,0,1-3.81,9.9,13.28,13.28,0,0,1-9.94,3.89A13.25,13.25,0,0,1,90.39,49.65V43.8a13.55,13.55,0,0,1,3.83-9.89,13.37,13.37,0,0,1,10-3.91,13.34,13.34,0,0,1,10,3.91A13.53,13.53,0,0,1,118,43.8Zm-7.52-5.89A9.4,9.4,0,0,0,108.84,38a6,6,0,0,0-9.31,0,9.48,9.48,0,0,0-1.62,5.72v5.89a9.49,9.49,0,0,0,1.64,5.76,5.48,5.48,0,0,0,4.7,2.23,5.36,5.36,0,0,0,4.6-2.23,9.53,9.53,0,0,0,1.63-5.76Z"/></svg>